{
	"asset":{
		"version":"2.0",
		"generator":"Created using the official Cinema 4D glTF Exporter 1.000x284978"
	},
	"scenes":[{
		"nodes":[0,
		1]
	}],
	"nodes":[{
		"name":"point_left",
		"mesh":0
	},
	{
		"name":"point_right",
		"mesh":1
	}],
	"meshes":[{
		"name":"point_left",
		"primitives":[{
			"attributes":{
				"POSITION":1,
				"TEXCOORD_0":2
			},
			"indices":0,
			"material":0
		}]
	},
	{
		"name":"point_right",
		"primitives":[{
			"attributes":{
				"POSITION":4,
				"TEXCOORD_0":5
			},
			"indices":3,
			"material":0
		}]
	}],
	"accessors":[{
		"bufferView":0,
		"type":"SCALAR",
		"componentType":5123,
		"count":142872,
		"byteOffset":0,
		"min":[0],
		"max":[23882]
	},
	{
		"bufferView":1,
		"type":"VEC3",
		"componentType":5126,
		"count":23883,
		"byteOffset":0,
		"min":[-28.650352478027345,
		11.890165328979493,
		-35.822811126708987],
		"max":[42.010292053222659,
		41.35197448730469,
		43.467105865478519]
	},
	{
		"bufferView":1,
		"type":"VEC2",
		"componentType":5126,
		"count":23883,
		"byteOffset":12,
		"min":[0.0,
		0.25],
		"max":[0.989762544631958,
		1.0]
	},
	{
		"bufferView":2,
		"type":"SCALAR",
		"componentType":5123,
		"count":142872,
		"byteOffset":0,
		"min":[0],
		"max":[23882]
	},
	{
		"bufferView":3,
		"type":"VEC3",
		"componentType":5126,
		"count":23883,
		"byteOffset":0,
		"min":[-42.05856704711914,
		11.890165328979493,
		-35.822811126708987],
		"max":[28.602075576782228,
		41.35197448730469,
		43.467105865478519]
	},
	{
		"bufferView":3,
		"type":"VEC2",
		"componentType":5126,
		"count":23883,
		"byteOffset":12,
		"min":[0.0,
		0.25],
		"max":[0.989762544631958,
		1.0]
	}],
	"bufferViews":[{
		"buffer":0,
		"byteOffset":0,
		"byteLength":285744,
		"target":34963
	},
	{
		"buffer":0,
		"byteOffset":285744,
		"byteLength":477660,
		"target":34962,
		"byteStride":20
	},
	{
		"buffer":1,
		"byteOffset":0,
		"byteLength":285744,
		"target":34963
	},
	{
		"buffer":1,
		"byteOffset":285744,
		"byteLength":477660,
		"target":34962,
		"byteStride":20
	}],
	"buffers":[{
		"uri":"data:application/octet-stream;base64,",
		"byteLength":763404
	},
	{
		"uri":"data:application/octet-stream;base64,",
		"byteLength":763404
	}],
	"materials":[{
		"pbrMetallicRoughness":{
			"baseColorFactor":[1.0,
			1.0,
			1.0,
			1.0],
			"metallicFactor":0.0,
			"roughnessFactor":0.5
		},
		"emissiveFactor":[0.0,
		0.0,
		0.0],
		"alphaMode":"OPAQUE",
		"doubleSided":false,
		"name":"wire_145028177"
	}]
}